<svg xmlns="http://www.w3.org/2000/svg" viewBox="0 0 204.5 23.18"><defs><style>.cls-1{ fill: #FF7300}</style></defs><title>sungrow</title><g id="图层_2" data-name="图层 2"><g id="图层_1-2" data-name="图层 1"><path class="cls-1" d="M169.58,12.07v7s0,.77-8.46.77-8.46-.74-8.46-.77V14.79a11.1,11.1,0,0,0-2.87,1.33,2.1,2.1,0,0,0-1,1.76v2.78c1.17,2.68,10.43,2.53,12.3,2.53s11.12.15,12.3-2.53V9a11.08,11.08,0,0,0-2.88,1.33A2.1,2.1,0,0,0,169.58,12.07Z"/><path class="cls-1" d="M173.42,2.53C172.24-.15,163,0,161.12,0S150-.15,148.82,2.53V14.19a11.08,11.08,0,0,0,2.88-1.33,2.1,2.1,0,0,0,1-1.76v-7s0-.77,8.46-.77,8.46.77,8.46.77h0V8.39a11.08,11.08,0,0,0,2.88-1.33,2.1,2.1,0,0,0,1-1.76Z"/><path class="cls-1" d="M51.25,19s0,.77-8.29.77S34.66,19,34.66,19V.32H30.83V20.65C32,23.33,41.09,23.18,43,23.18s11,.15,12.13-2.53V.32H51.25Z"/><path class="cls-1" d="M200.87.32V18l-9.09-9.1-9.1,9.1V.32H179V22.85h2.55a2.32,2.32,0,0,0,1.64-.68l8.54-8.54,8.54,8.54a2.32,2.32,0,0,0,1.64.68h2.55V.32Z"/><path class="cls-1" d="M113.72,9.56H103.56a2.09,2.09,0,0,0-1.76,1,10.35,10.35,0,0,0-1.2,2.62h10.49s.41,0,.41,3.07c0,2.66-.41,2.66-.41,2.66H94.48s-.7,0-.7-7.27.7-7.27.7-7.27h17.07a2.29,2.29,0,0,0,1.93-1,11.55,11.55,0,0,0,1.36-3H92.46C90,1.4,90.15,9.88,90.15,11.59S90,21.78,92.46,22.85h21.26c1.45-.64,1.37-5.64,1.37-6.65S115.17,10.19,113.72,9.56Z"/><path class="cls-1" d="M141.82,13.14c1.45-.64,1.37-5.4,1.37-6.41S143.27,1,141.82.32H120.47v4h18.72s.41,0,.41,2.41c0,2.83-.41,2.83-.41,2.83H120.47v13.3h3.63V13.14h6.08l9,9a2.32,2.32,0,0,0,1.64.68h4.56l-9.72-9.72Z"/><path class="cls-1" d="M20.7,9.56h-16A1.13,1.13,0,0,1,3.59,8.4V5.47A1.13,1.13,0,0,1,4.75,4.32H21.9a2.29,2.29,0,0,0,1.93-1,11.55,11.55,0,0,0,1.36-3H4.75C0,.32,0,4.45,0,4.45V9s0,4.13,4.75,4.13h16a1.13,1.13,0,0,1,1.16,1.16v3.41a1.13,1.13,0,0,1-1.16,1.16H3.29a2.29,2.29,0,0,0-1.93,1,11.54,11.54,0,0,0-1.36,3H20.7c4.75,0,4.75-4.13,4.75-4.13v-5S25.45,9.56,20.7,9.56Z"/><path class="cls-1" d="M81.48,17.67,64.81,1A2.32,2.32,0,0,0,63.17.32H60.72V22.85h3.83V5.51L81.22,22.18a2.32,2.32,0,0,0,1.64.68h2.45V.32H81.48Z"/></g></g></svg>